<?xml version="1.0" encoding="utf-8"?><svg xmlns="http://www.w3.org/2000/svg" xmlns:xlink="http://www.w3.org/1999/xlink"><symbol viewBox="0 0 52 52" id="arrow-right" xmlns="http://www.w3.org/2000/svg"><path fill="currentColor" d="M3.4 29h33.2c.9 0 1.3 1.1.7 1.7l-9.6 9.6c-.6.6-.6 1.5 0 2.1l2.2 2.2c.6.6 1.5.6 2.1 0L49.5 27c.6-.6.6-1.5 0-2.1L32 7.4c-.6-.6-1.5-.6-2.1 0l-2.1 2.1c-.6.6-.6 1.5 0 2.1l9.6 9.6c.6.7.2 1.8-.7 1.8H3.5c-.8 0-1.5.6-1.5 1.4v3c0 .8.6 1.6 1.4 1.6z"/></symbol><symbol viewBox="0 0 52 52" id="camera" xmlns="http://www.w3.org/2000/svg"><path fill="currentColor" d="M26 20c-4.4 0-8 3.6-8 8s3.6 8 8 8 8-3.6 8-8-3.6-8-8-8zm20-6h-5.2c-1.4 0-2.6-.7-3.4-1.8l-2.3-3.5C34.4 7 32.7 6 30.9 6h-9.8c-1.8 0-3.5 1-4.3 2.7l-2.3 3.5c-.7 1.1-2 1.8-3.4 1.8H6c-2.2 0-4 1.8-4 4v24c0 2.2 1.8 4 4 4h40c2.2 0 4-1.8 4-4V18c0-2.2-1.8-4-4-4zM26 40c-6.6 0-12-5.4-12-12s5.4-12 12-12 12 5.4 12 12-5.4 12-12 12z"/></symbol><symbol viewBox="0 0 209 84" id="capture-both" xmlns="http://www.w3.org/2000/svg"><path fill="#0070cd" d="M99 17h110v67H99z"/><path fill="none" d="M134.88 25.74h37.68v37.68h-37.68z"/><path d="M153.72 42.22a3.14 3.14 0 103.14 3.14 3.15 3.15 0 00-3.14-3.14zm7.85-2.35h-2a1.63 1.63 0 01-1.33-.71l-.91-1.37a1.75 1.75 0 00-1.65-1.06h-3.88a1.85 1.85 0 00-1.69 1.06l-.9 1.37a1.61 1.61 0 01-1.34.71h-2a1.57 1.57 0 00-1.57 1.57v9.42a1.58 1.58 0 001.57 1.57h15.7a1.58 1.58 0 001.57-1.57v-9.42a1.57 1.57 0 00-1.57-1.57zm-7.85 10.2a4.71 4.71 0 114.71-4.71 4.72 4.72 0 01-4.71 4.71z" fill="#fff"/><path d="M99.21 16.64h16.49v56.31H99.21z" opacity=".2"/><path fill="#0070cd" d="M0 0h110v67H0z"/><path d="M146.18 63.5a8 8 0 012.51-.54c1.48 0 2.33 1 2.33 2.61a4.35 4.35 0 01-.89 2.63A6.17 6.17 0 01148 70a.58.58 0 01-.19.06c-.09 0-.16-.05-.26-.15a2.69 2.69 0 00-.91-.58 5.94 5.94 0 002.42-1.84 3.19 3.19 0 00.6-1.94c0-.92-.38-1.39-1-1.39a3.78 3.78 0 00-1.73.47 4.89 4.89 0 00-.93.53.4.4 0 01-.24.11c-.15 0-.25-.14-.31-.24a6.65 6.65 0 01-.56-1.16 5.47 5.47 0 001.29-.37zm4-2.53c.12 0 .17.11.14.2a7.64 7.64 0 01-.24 1c0 .11-.06.17-.15.15a14 14 0 01-3.19-.84c-.06 0-.11-.08-.08-.22a5.53 5.53 0 01.33-1 13.41 13.41 0 003.2.74zM157.35 63.13c.12.06.18.12.18.21a.27.27 0 01-.06.16 2.32 2.32 0 00-.22.59 17.29 17.29 0 00-.26 2 5.37 5.37 0 013.67-1.74 2.3 2.3 0 012.57 2.36 2.69 2.69 0 01-1.66 2.46 9.73 9.73 0 01-2.82.76c-.24 0-.34 0-.44-.14a2.86 2.86 0 00-.75-.94 9.28 9.28 0 003-.61 1.8 1.8 0 001.29-1.67c0-.59-.37-1.13-1.32-1.13a4.91 4.91 0 00-3.16 1.67 3 3 0 00-.48.61c-.06.11-.11.11-.25.08s-.52-.19-.75-.3-.15-.07-.15-.22c.06-1.28.21-2.58.34-3.56a7.36 7.36 0 00.1-1 7 7 0 011.17.41zm.28-2.78a.18.18 0 01.21-.06A7.3 7.3 0 01160 61.6c.06 0 .08.08.08.12a.22.22 0 01-.06.13 5.8 5.8 0 01-.56.77q-.06.09-.12.09a.19.19 0 01-.13-.07 8.65 8.65 0 00-2.21-1.43 5.05 5.05 0 01.63-.86z" fill="#fff"/><path fill="none" d="M36.44 9.49h37.68v37.68H36.44z"/><path d="M55.28 26a3.14 3.14 0 103.14 3.14A3.15 3.15 0 0055.28 26zm7.85-2.35h-2a1.66 1.66 0 01-1.34-.71l-.9-1.37a1.75 1.75 0 00-1.65-1.06h-3.88a1.85 1.85 0 00-1.69 1.06l-.9 1.37a1.61 1.61 0 01-1.34.71h-2a1.57 1.57 0 00-1.57 1.57v9.42a1.58 1.58 0 001.57 1.57h15.7a1.58 1.58 0 001.57-1.57v-9.45a1.57 1.57 0 00-1.57-1.57zm-7.85 10.2A4.71 4.71 0 1160 29.11a4.72 4.72 0 01-4.72 4.71zM42.31 47.72c-.55 0-1.11.09-1.85.09-.19 0-.24-.07-.26-.23s-.08-.58-.12-1a6.11 6.11 0 00.86.05 13 13 0 001.39-.09v-1.25a4.45 4.45 0 00-.07-.89 5.94 5.94 0 011.31.2c.13 0 .22.11.22.21a.43.43 0 01-.07.17 1.3 1.3 0 00-.15.43 8.2 8.2 0 00-.06.92 11.91 11.91 0 001.42-.33c.1 0 .17 0 .19.1a6 6 0 01.06.86c0 .1 0 .14-.14.17a11.21 11.21 0 01-1.57.42v1.59a7 7 0 012.71-.6 2.18 2.18 0 012.34 2.2 2.12 2.12 0 01-2.38 2.23 4 4 0 01-.91-.1.29.29 0 01-.23-.37 1.91 1.91 0 00-.33-.93 4.29 4.29 0 001.38.2 1.09 1.09 0 001.18-1.14A1.06 1.06 0 0046 49.52a5.47 5.47 0 00-2.51.75v1.32c0 .48.09 1.18.09 1.43s0 .32-.17.36a4.92 4.92 0 01-.81.14c-.12 0-.17-.08-.27-.22a6.34 6.34 0 00-1.56-1.41 1.67 1.67 0 00-.35.24.29.29 0 01-.19.08A.33.33 0 0140 52c-.12-.2-.34-.66-.51-1a4.27 4.27 0 001-.39l1.79-1zm-1 3.78c.31.17.68.35 1 .5.09 0 .12 0 .11-.09 0-.29 0-.79-.06-1.16zm5.26-5.77c.07-.12.11-.16.18-.14a5.23 5.23 0 012.34 1.35.15.15 0 01.06.11.37.37 0 010 .11c-.15.22-.43.56-.6.78a.2.2 0 01-.22 0A5.08 5.08 0 0046 46.58a6.17 6.17 0 01.55-.85zM54.25 51.08c0 1 .44 1.41 1.46 1.41 1.29 0 2-.49 2-1.48a2.64 2.64 0 00-1-2 3.52 3.52 0 001.12-.06.26.26 0 01.23 0 2.87 2.87 0 01.94 2.1c0 1.56-1.28 2.58-3.17 2.58s-2.77-.88-2.77-2.49c0-.23 0-.54.08-1a8.88 8.88 0 01-1.5-.33c-.08 0-.11-.08-.12-.21a5.91 5.91 0 010-1 6.32 6.32 0 001.78.43c.05-.4.14-1.12.19-1.57a8.06 8.06 0 01-1.59-.31c-.13 0-.18-.09-.18-.19v-1a9.32 9.32 0 002 .42c.09-.64.12-.94.15-1.27a5.65 5.65 0 000-.92 7 7 0 011.32.31c.15 0 .24.15.24.25a.36.36 0 01-.09.21 1.11 1.11 0 00-.2.47c0 .26-.12.63-.17 1a6.18 6.18 0 001.35-.07c.08 0 .11.06.11.13a5.72 5.72 0 010 .83c0 .12-.05.15-.18.16a10.19 10.19 0 01-1.46.06c-.07.38-.18 1.13-.24 1.57h1.56c.14 0 .17 0 .17.12a8 8 0 01-.05.82c0 .14 0 .18-.16.18h-1.68a7.54 7.54 0 00-.14.85zM67.06 46.4c-1.34.25-2.52.48-3.7.72l-.69.18a.7.7 0 01-.24.09.25.25 0 01-.21-.17 8.63 8.63 0 01-.41-1.22c.56 0 .89-.07 1.75-.19 1.36-.2 3.78-.56 6.61-.94.17 0 .22.05.24.12a7 7 0 01.12 1c0 .13-.07.17-.21.17a4.54 4.54 0 00-1.34.24c-1.88.64-2.81 1.92-2.81 3.24s1 2.19 2.93 2.31c.17 0 .24 0 .24.17a4.34 4.34 0 01-.12.95c0 .16-.08.23-.21.23-1.94 0-4.06-1.11-4.06-3.4a4 4 0 012.11-3.49zM124.58 42L116 37.01V41H92v2h24v3.99l8.58-4.99z" fill="#fff"/></symbol><symbol viewBox="0 0 209 84" id="capture-both-en" xmlns="http://www.w3.org/2000/svg"><path fill="#0070cd" d="M99 17h110v67H99z"/><path fill="none" d="M134.88 25.74h37.68v37.68h-37.68z"/><path d="M153.72 42.22a3.14 3.14 0 103.14 3.14 3.16 3.16 0 00-3.14-3.14zm7.85-2.35h-2a1.65 1.65 0 01-1.33-.71l-.91-1.37a1.74 1.74 0 00-1.65-1.06h-3.88a1.85 1.85 0 00-1.69 1.06l-.9 1.37a1.6 1.6 0 01-1.34.71h-2a1.57 1.57 0 00-1.57 1.57v9.42a1.59 1.59 0 001.57 1.57h15.7a1.59 1.59 0 001.57-1.57v-9.42a1.57 1.57 0 00-1.57-1.57zm-7.85 10.2a4.71 4.71 0 114.71-4.71 4.71 4.71 0 01-4.71 4.71z" fill="#fff"/><path d="M99.21 16.64h16.49v56.31H99.21z" opacity=".2"/><path fill="#0070cd" d="M0 0h110v67H0z"/><path fill="none" d="M36.44 9.49h37.68v37.68H36.44z"/><path d="M55.28 26a3.14 3.14 0 103.14 3.14A3.16 3.16 0 0055.28 26zm7.85-2.35h-2a1.68 1.68 0 01-1.34-.71l-.9-1.37a1.74 1.74 0 00-1.65-1.06h-3.88a1.85 1.85 0 00-1.69 1.06l-.9 1.37a1.6 1.6 0 01-1.34.71h-2a1.57 1.57 0 00-1.57 1.57v9.42a1.59 1.59 0 001.57 1.57h15.7a1.59 1.59 0 001.57-1.57v-9.45a1.57 1.57 0 00-1.57-1.57zm-7.85 10.2A4.71 4.71 0 1160 29.11a4.71 4.71 0 01-4.72 4.74zM124.58 42L116 37.01V41H92v2h24v3.99l8.58-4.99zM38.41 53.45v-9.33h6v1.58h-4.16v2.54H44v1.54h-3.75v3.67zM45.91 46.19h1.8v1.14h.08a1.85 1.85 0 011.84-1.25 2.5 2.5 0 01.56.06v1.61a3 3 0 00-.71-.07 1.55 1.55 0 00-1.73 1.66v4.11h-1.84zM57.88 49.41v.78a3.32 3.32 0 11-6.64 0v-.77a3.32 3.32 0 116.64 0zm-4.82.05v.73c0 1.05.47 2 1.51 2s1.49-.89 1.49-2v-.73c0-1.08-.49-2-1.49-2s-1.51.92-1.51 2zM59.69 46.19h1.76v1.28h.09a2.05 2.05 0 012.16-1.39 2.25 2.25 0 012.42 2.52v4.85h-1.8v-4.33c0-1.06-.57-1.47-1.31-1.47-1 0-1.52.71-1.52 1.78v4h-1.8zM68.71 44.46h1.75v1.81h1.61v1.43h-1.61v3.44c0 .71.3.93 1.06.93h.62v1.37a7.37 7.37 0 01-1.06.08c-1.81 0-2.41-.6-2.41-2.09V47.7h-1.1v-1.43h1.14zM139 60.68h3.89c1.67 0 2.76.86 2.76 2.29a2 2 0 01-1.6 2v.09a2.16 2.16 0 012.08 2.27c0 1.67-1.36 2.64-3.25 2.64H139zm1.83 3.86h1.22c1.23 0 1.78-.46 1.78-1.24s-.5-1.2-1.37-1.2h-1.63zm0 4h1.37c1.45 0 2.05-.47 2.05-1.34s-.58-1.38-1.67-1.38h-1.75zM147.49 67.9c0-1.3.9-2.17 2.58-2.17h1.77v-.64c0-.7-.47-1-1.21-1s-1.08.32-1.17.76h-1.71c.09-1.19.93-2.18 2.92-2.18 1.63 0 3 .66 3 2.51V70h-1.71v-.92h-.08a2.08 2.08 0 01-2 1 2.17 2.17 0 01-2.39-2.18zm4.35-.31v-.75h-1.38c-.8 0-1.18.39-1.18.93s.57 1 1.18 1a1.27 1.27 0 001.38-1.18zM155.38 65.91a3.05 3.05 0 013.23-3.3 2.68 2.68 0 013 2.58h-1.66a1.18 1.18 0 00-1.28-1.09c-.95 0-1.46.72-1.46 1.83v.84c0 1.17.54 1.88 1.47 1.88a1.13 1.13 0 001.3-1h1.66c0 1.42-1 2.51-3 2.51a3 3 0 01-3.23-3.36zM165.17 70h-1.81v-9.82h1.81v5.57h.08l2.42-3h2l-2.65 3.14 2.86 4.11h-2.1l-2.09-3.07-.52.56z" fill="#fff"/></symbol><symbol viewBox="0 0 209 84" id="capture-single" xmlns="http://www.w3.org/2000/svg"><path fill="#e6e6e6" d="M99 17h110v67H99z"/><path d="M99.21 16.64h16.49v56.31H99.21z" opacity=".2"/><path fill="#0070cd" d="M0 0h110v67H0z"/><path d="M146.18 67.5a8 8 0 012.51-.54c1.48 0 2.33 1 2.33 2.61a4.35 4.35 0 01-.89 2.63A6.17 6.17 0 01148 74a.58.58 0 01-.19.06c-.09 0-.16-.05-.26-.15a2.69 2.69 0 00-.91-.58 5.94 5.94 0 002.42-1.84 3.19 3.19 0 00.6-1.94c0-.92-.38-1.39-1-1.39a3.78 3.78 0 00-1.73.47 4.89 4.89 0 00-.93.53.4.4 0 01-.24.11c-.15 0-.25-.14-.31-.24a6.65 6.65 0 01-.56-1.16 5.47 5.47 0 001.29-.37zm4-2.53c.12 0 .17.11.14.2a7.64 7.64 0 01-.24 1c0 .11-.06.17-.15.15a14 14 0 01-3.19-.84c-.06 0-.11-.08-.08-.22a5.53 5.53 0 01.33-1 13.41 13.41 0 003.2.74zM157.35 67.13c.12.06.18.12.18.21a.27.27 0 01-.06.16 2.32 2.32 0 00-.22.59 17.29 17.29 0 00-.26 2 5.37 5.37 0 013.67-1.74 2.3 2.3 0 012.57 2.36 2.69 2.69 0 01-1.66 2.46 9.73 9.73 0 01-2.82.76c-.24 0-.34 0-.44-.14a2.86 2.86 0 00-.75-.94 9.28 9.28 0 003-.61 1.8 1.8 0 001.29-1.67c0-.59-.37-1.13-1.32-1.13a4.91 4.91 0 00-3.16 1.67 3 3 0 00-.48.61c-.06.11-.11.11-.25.08s-.52-.19-.75-.3-.15-.07-.15-.22c.06-1.28.21-2.58.34-3.56a7.36 7.36 0 00.1-1 7 7 0 011.17.41zm.28-2.78a.18.18 0 01.21-.06A7.3 7.3 0 01160 65.6c.06.05.08.08.08.12a.22.22 0 01-.06.13 5.8 5.8 0 01-.56.77q-.06.09-.12.09a.19.19 0 01-.13-.07 8.65 8.65 0 00-2.21-1.43 5.05 5.05 0 01.63-.86z" fill="#b3b3b3"/><path fill="none" d="M36.44 9.49h37.68v37.68H36.44z"/><path d="M55.28 26a3.14 3.14 0 103.14 3.14A3.15 3.15 0 0055.28 26zm7.85-2.35h-2a1.66 1.66 0 01-1.34-.71l-.9-1.37a1.75 1.75 0 00-1.65-1.06h-3.88a1.85 1.85 0 00-1.69 1.06l-.9 1.37a1.61 1.61 0 01-1.34.71h-2a1.57 1.57 0 00-1.57 1.57v9.42a1.58 1.58 0 001.57 1.57h15.7a1.58 1.58 0 001.57-1.57v-9.45a1.57 1.57 0 00-1.57-1.57zm-7.85 10.2A4.71 4.71 0 1160 29.11a4.72 4.72 0 01-4.72 4.71zM42.31 47.72c-.55 0-1.11.09-1.85.09-.19 0-.24-.07-.26-.23s-.08-.58-.12-1a6.11 6.11 0 00.86.05 13 13 0 001.39-.09v-1.25a4.45 4.45 0 00-.07-.89 5.94 5.94 0 011.31.2c.13 0 .22.11.22.21a.43.43 0 01-.07.17 1.3 1.3 0 00-.15.43 8.2 8.2 0 00-.06.92 11.91 11.91 0 001.42-.33c.1 0 .17 0 .19.1a6 6 0 01.06.86c0 .1 0 .14-.14.17a11.21 11.21 0 01-1.57.42v1.59a7 7 0 012.71-.6 2.18 2.18 0 012.34 2.2 2.12 2.12 0 01-2.38 2.23 4 4 0 01-.91-.1.29.29 0 01-.23-.37 1.91 1.91 0 00-.33-.93 4.29 4.29 0 001.38.2 1.09 1.09 0 001.18-1.14A1.06 1.06 0 0046 49.52a5.47 5.47 0 00-2.51.75v1.32c0 .48.09 1.18.09 1.43s0 .32-.17.36a4.92 4.92 0 01-.81.14c-.12 0-.17-.08-.27-.22a6.34 6.34 0 00-1.56-1.41 1.67 1.67 0 00-.35.24.29.29 0 01-.19.08A.33.33 0 0140 52c-.12-.2-.34-.66-.51-1a4.27 4.27 0 001-.39l1.79-1zm-1 3.78c.31.17.68.35 1 .5.09 0 .12 0 .11-.09 0-.29 0-.79-.06-1.16zm5.26-5.77c.07-.12.11-.16.18-.14a5.23 5.23 0 012.34 1.35.15.15 0 01.06.11.37.37 0 010 .11c-.15.22-.43.56-.6.78a.2.2 0 01-.22 0A5.08 5.08 0 0046 46.58a6.17 6.17 0 01.55-.85zM54.25 51.08c0 1 .44 1.41 1.46 1.41 1.29 0 2-.49 2-1.48a2.64 2.64 0 00-1-2 3.52 3.52 0 001.12-.06.26.26 0 01.23 0 2.87 2.87 0 01.94 2.1c0 1.56-1.28 2.58-3.17 2.58s-2.77-.88-2.77-2.49c0-.23 0-.54.08-1a8.88 8.88 0 01-1.5-.33c-.08 0-.11-.08-.12-.21a5.91 5.91 0 010-1 6.32 6.32 0 001.78.43c.05-.4.14-1.12.19-1.57a8.06 8.06 0 01-1.59-.31c-.13 0-.18-.09-.18-.19v-1a9.32 9.32 0 002 .42c.09-.64.12-.94.15-1.27a5.65 5.65 0 000-.92 7 7 0 011.32.31c.15 0 .24.15.24.25a.36.36 0 01-.09.21 1.11 1.11 0 00-.2.47c0 .26-.12.63-.17 1a6.18 6.18 0 001.35-.07c.08 0 .11.06.11.13a5.72 5.72 0 010 .83c0 .12-.05.15-.18.16a10.19 10.19 0 01-1.46.06c-.07.38-.18 1.13-.24 1.57h1.56c.14 0 .17 0 .17.12a8 8 0 01-.05.82c0 .14 0 .18-.16.18h-1.68a7.54 7.54 0 00-.14.85zM67.06 46.4c-1.34.25-2.52.48-3.7.72l-.69.18a.7.7 0 01-.24.09.25.25 0 01-.21-.17 8.63 8.63 0 01-.41-1.22c.56 0 .89-.07 1.75-.19 1.36-.2 3.78-.56 6.61-.94.17 0 .22.05.24.12a7 7 0 01.12 1c0 .13-.07.17-.21.17a4.54 4.54 0 00-1.34.24c-1.88.64-2.81 1.92-2.81 3.24s1 2.19 2.93 2.31c.17 0 .24 0 .24.17a4.34 4.34 0 01-.12.95c0 .16-.08.23-.21.23-1.94 0-4.06-1.11-4.06-3.4a4 4 0 012.11-3.49z" fill="#fff"/><path d="M154.46 35A10.5 10.5 0 10165 45.47 10.51 10.51 0 00154.46 35zm0 3a7.44 7.44 0 014.31 1.37l-10.43 10.41A7.48 7.48 0 01154.46 38zm0 15a7.49 7.49 0 01-3.94-1.13l10.31-10.31a7.35 7.35 0 011.17 3.91 7.5 7.5 0 01-7.54 7.53z" fill="#b3b3b3"/></symbol><symbol viewBox="0 0 209 84" id="capture-single-en" xmlns="http://www.w3.org/2000/svg"><path fill="#e6e6e6" d="M99 17h110v67H99z"/><path d="M99.21 16.64h16.49v56.31H99.21z" opacity=".2"/><path fill="#0070cd" d="M0 0h110v67H0z"/><path fill="none" d="M36.44 9.49h37.68v37.68H36.44z"/><path d="M55.28 26a3.14 3.14 0 103.14 3.14A3.16 3.16 0 0055.28 26zm7.85-2.35h-2a1.68 1.68 0 01-1.34-.71l-.9-1.37a1.74 1.74 0 00-1.65-1.06h-3.88a1.85 1.85 0 00-1.69 1.06l-.9 1.37a1.6 1.6 0 01-1.34.71h-2a1.57 1.57 0 00-1.57 1.57v9.42a1.59 1.59 0 001.57 1.57h15.7a1.59 1.59 0 001.57-1.57v-9.45a1.57 1.57 0 00-1.57-1.57zm-7.85 10.2A4.71 4.71 0 1160 29.11a4.71 4.71 0 01-4.72 4.74z" fill="#fff"/><path d="M154.46 35A10.5 10.5 0 10165 45.47 10.5 10.5 0 00154.46 35zm0 3a7.48 7.48 0 014.31 1.37l-10.43 10.41A7.48 7.48 0 01154.46 38zm0 15a7.42 7.42 0 01-3.94-1.13l10.31-10.31a7.34 7.34 0 011.17 3.91 7.5 7.5 0 01-7.47 7.53z" fill="#b3b3b3"/><path d="M38.41 53.45v-9.33h6v1.58h-4.16v2.54H44v1.54h-3.75v3.67zM45.91 46.19h1.8v1.14h.08a1.85 1.85 0 011.84-1.25 2.5 2.5 0 01.56.06v1.61a3 3 0 00-.71-.07 1.55 1.55 0 00-1.73 1.66v4.11h-1.84zM57.88 49.41v.78a3.32 3.32 0 11-6.64 0v-.77a3.32 3.32 0 116.64 0zm-4.82.05v.73c0 1.05.47 2 1.51 2s1.49-.89 1.49-2v-.73c0-1.08-.49-2-1.49-2s-1.51.92-1.51 2zM59.69 46.19h1.76v1.28h.09a2.05 2.05 0 012.16-1.39 2.25 2.25 0 012.42 2.52v4.85h-1.8v-4.33c0-1.06-.57-1.47-1.31-1.47-1 0-1.52.71-1.52 1.78v4h-1.8zM68.71 44.46h1.75v1.81h1.61v1.43h-1.61v3.44c0 .71.3.93 1.06.93h.62v1.37a7.37 7.37 0 01-1.06.08c-1.81 0-2.41-.6-2.41-2.09V47.7h-1.1v-1.43h1.14z" fill="#fff"/><path d="M139 63.88h3.89c1.67 0 2.76.86 2.76 2.3a2 2 0 01-1.6 2v.09a2.16 2.16 0 012.08 2.27c0 1.67-1.36 2.63-3.25 2.63H139zm1.83 3.87h1.22c1.23 0 1.78-.46 1.78-1.24s-.5-1.21-1.37-1.21h-1.63zm0 4h1.37c1.45 0 2.05-.47 2.05-1.34s-.58-1.39-1.67-1.39h-1.75zM147.49 71.11c0-1.31.9-2.18 2.58-2.18h1.77v-.63c0-.71-.47-1-1.21-1s-1.08.32-1.17.77h-1.71c.09-1.19.93-2.18 2.92-2.18 1.63 0 3 .65 3 2.51v4.86h-1.71v-.96h-.08a2.09 2.09 0 01-2 1 2.16 2.16 0 01-2.39-2.19zm4.35-.32v-.74h-1.38c-.8 0-1.18.39-1.18.93s.57 1 1.18 1a1.27 1.27 0 001.38-1.19zM155.38 69.12a3.05 3.05 0 013.23-3.3 2.67 2.67 0 013 2.57h-1.66a1.18 1.18 0 00-1.28-1.08c-.95 0-1.46.72-1.46 1.83V70c0 1.17.54 1.88 1.47 1.88a1.13 1.13 0 001.3-1h1.66c0 1.43-1 2.51-3 2.51a3 3 0 01-3.26-3.39zM165.17 73.21h-1.81v-9.82h1.81V69h.08l2.42-3h2l-2.65 3.13 2.83 4.13h-2.1l-2.09-3.07-.52.57z" fill="#b3b3b3"/></symbol><symbol viewBox="0 0 52 52" id="check" xmlns="http://www.w3.org/2000/svg"><path fill="currentColor" d="M19.1 42.5L2.6 25.9a1.57 1.57 0 010-2.2l2.2-2.2a1.57 1.57 0 012.2 0L19.4 34a1.09 1.09 0 001.5 0L45.2 9.5a1.57 1.57 0 012.2 0l2.2 2.2a1.57 1.57 0 010 2.2L21.3 42.5a1.41 1.41 0 01-2.2 0z"/></symbol><symbol viewBox="0 0 52 52" id="close" xmlns="http://www.w3.org/2000/svg"><path fill="currentColor" d="M31.6 25.8l13.1-13.1a1.45 1.45 0 000-2.1l-2.1-2.1a1.45 1.45 0 00-2.1 0L27.4 21.6a1 1 0 01-1.4 0L12.9 8.4a1.45 1.45 0 00-2.1 0l-2.1 2.1a1.45 1.45 0 000 2.1l13.1 13.1a1 1 0 010 1.4L8.6 40.3a1.45 1.45 0 000 2.1l2.1 2.1a1.45 1.45 0 002.1 0L26 31.4a1 1 0 011.4 0l13.1 13.1a1.45 1.45 0 002.1 0l2.1-2.1a1.45 1.45 0 000-2.1L31.6 27.2a1.2 1.2 0 010-1.4z"/></symbol><symbol viewBox="0 0 52 52" id="defer" xmlns="http://www.w3.org/2000/svg"><path fill="currentColor" d="M26 2a24 24 0 1024 24A24.07 24.07 0 0026 2zm0 42a18 18 0 1118-18 18.05 18.05 0 01-18 18zm3.4-17.8a1.5 1.5 0 01-.4-1.1v-9.6a1.54 1.54 0 00-1.5-1.5h-3a1.54 1.54 0 00-1.5 1.5v12.1a2.1 2.1 0 00.4 1.1l7.4 7.4a1.45 1.45 0 002.1 0L35 34a1.45 1.45 0 000-2.1z"/></symbol><symbol viewBox="0 0 52 52" id="edit" xmlns="http://www.w3.org/2000/svg"><path fill="currentColor" d="M48.8 7.4l-4.2-4.2a3.87 3.87 0 00-5.6 0l-3.3 3.3a1 1 0 000 1.4l8.5 8.5a1 1 0 001.4 0l3.3-3.3a4.08 4.08 0 00-.1-5.7zm-15.9 3.3a1 1 0 00-1.4 0L5.4 36.8 2.1 48.1A1.52 1.52 0 003.9 50l11.4-3.2h-.1l26.1-26.1a1 1 0 000-1.4z"/></symbol><symbol viewBox="0 0 128 128" fill="currentColor" id="rotate" xmlns="http://www.w3.org/2000/svg"><circle cx="13" cy="64" r="8"/><circle cx="19.83" cy="89.5" r="8" transform="rotate(-21.88 19.815 89.484)"/><circle cx="38.5" cy="108.17" r="8" transform="rotate(-2.56 38.556 108.103)"/><circle cx="64" cy="115" r="8"/><path d="M23.83 31.57a8 8 0 102.93 10.93 8 8 0 00-2.93-10.93zM112.94 98.87l-1.38.07A59 59 0 0034.26 13a8 8 0 108.07 13.82A43 43 0 0196.9 91.73L96.51 84a8 8 0 10-16 .81l1.19 23.63a1.5 1.5 0 000 .22 4 4 0 00.05.5 3 3 0 00.06.32c0 .15.05.29.08.44l.12.4c0 .11.06.22.1.33a4.87 4.87 0 00.21.53 1.46 1.46 0 00.07.19 8.53 8.53 0 00.91 1.51l.17.21c.15.18.32.37.49.54l.17.18c.21.2.44.39.67.57l.24.17c.18.13.37.25.56.37l.23.13a7.84 7.84 0 001.73.7h.2c.25.06.49.11.74.15h.23a9.28 9.28 0 00.93.06h.41l23.63-1.19a8 8 0 10-.8-16z"/></symbol><symbol viewBox="0 0 52 52" id="setting" xmlns="http://www.w3.org/2000/svg"><path d="M26.1 19.1c-3.9 0-7 3.1-7 7s3.1 7 7 7 7-3.1 7-7-3.1-7-7-7zm21 13.3l-3.7-3.1c.2-1.1.3-2.3.3-3.4s-.1-2.3-.3-3.4l3.7-3.1c1.2-1 1.6-2.8.8-4.2l-1.6-2.8c-.6-1-1.7-1.6-2.9-1.6-.4 0-.8.1-1.1.2l-4.6 1.7c-1.8-1.6-3.8-2.7-5.9-3.4L31 4.6c-.3-1.6-1.7-2.5-3.3-2.5h-3.2c-1.6 0-3 .9-3.3 2.5l-.8 4.6c-2.2.7-4.2 1.9-6 3.4l-4.6-1.7c-.4-.1-.7-.2-1.1-.2-1.2 0-2.3.6-2.9 1.6l-1.6 2.8c-.8 1.4-.5 3.2.8 4.2l3.7 3.1c-.2 1.1-.3 2.3-.3 3.4 0 1.2.1 2.3.3 3.4L5 32.3c-1.2 1-1.6 2.8-.8 4.2l1.6 2.8c.6 1 1.7 1.6 2.9 1.6.4 0 .8-.1 1.1-.2l4.6-1.7c1.8 1.6 3.8 2.7 5.9 3.4l.8 4.8c.3 1.6 1.6 2.7 3.3 2.7h3.2c1.6 0 3-1.2 3.3-2.8l.8-4.8c2.3-.8 4.4-2 6.2-3.7l4.3 1.7c.4.1.8.2 1.2.2 1.2 0 2.3-.6 2.9-1.6l1.5-2.6c.9-1.1.5-2.9-.7-3.9zm-21 4.7c-6.1 0-11-4.9-11-11s4.9-11 11-11 11 4.9 11 11-4.9 11-11 11z" fill="currentColor"/></symbol><symbol fill="none" stroke="currentColor" stroke-width="2" stroke-linecap="round" stroke-linejoin="round" class="mfeather mfeather-zoom-in" viewBox="0 0 24 24" id="zoom-in" xmlns="http://www.w3.org/2000/svg"><circle cx="11" cy="11" r="8"/><path d="M21 21l-4.35-4.35M11 8v6M8 11h6"/></symbol><symbol fill="none" stroke="currentColor" stroke-width="2" stroke-linecap="round" stroke-linejoin="round" class="nfeather nfeather-zoom-out" viewBox="0 0 24 24" id="zoom-out" xmlns="http://www.w3.org/2000/svg"><circle cx="11" cy="11" r="8"/><path d="M21 21l-4.35-4.35M8 11h6"/></symbol></svg>